<?xml version="1.0" encoding="utf-8"?>
<!-- Generator: Adobe Illustrator 24.2.1, SVG Export Plug-In . SVG Version: 6.00 Build 0)  -->
<svg version="1.1" id="Layer_1" xmlns="http://www.w3.org/2000/svg" xmlns:xlink="http://www.w3.org/1999/xlink" x="0px" y="0px"
	 viewBox="0 0 132.2 23.1" style="enable-background:new 0 0 132.2 23.1;" xml:space="preserve">
<style type="text/css">
	.st0{enable-background:new    ;}
</style>
<g class="st0">
	<path d="M10.4,15.3c-0.1-0.2-0.2-0.5-0.2-0.7S10.1,14,10,13.7s0-0.6,0-0.8H10c-0.2,0.2-0.5,0.4-0.8,0.6S8.7,13.8,8.4,14
		s-0.6,0.2-0.9,0.3c-0.1-0.1-0.1-0.2-0.1-0.3l0.2-0.2c0.3-0.1,0.6-0.3,0.8-0.4S9,13,9.2,12.8c0.3-0.2,0.5-0.3,0.8-0.5l0.2-3.9h-0.1
		C9.9,8.5,9.7,8.6,9.5,8.7S9.1,8.8,8.8,8.9s-0.5,0.1-0.7,0L7.9,8.8V8.7c0.3,0,0.5,0,0.8-0.1s0.5-0.2,0.8-0.2S10,8.1,10.2,8
		c0-0.3,0-0.6,0.1-0.9s0.1-0.6,0.1-0.9s0.1-0.6,0.2-0.9l0.2,0l0.6,0.6h-0.1l-0.6-0.3c-0.1,0.2-0.1,0.5-0.1,0.7s0,0.5-0.1,0.7
		s0,0.5-0.1,0.8h0.1c0.1-0.1,0.3-0.2,0.4-0.3s0.3-0.2,0.4-0.3s0.3-0.2,0.4-0.3V7l-0.6,0.7h-0.1v0.1l-0.8,0.5l-0.1,3.8h0.1l1.4-0.9v0
		c-0.1,0.2-0.3,0.3-0.5,0.5s-0.3,0.3-0.5,0.4s-0.3,0.3-0.5,0.4v0.9L10.4,15.3L10.4,15.3z M15.4,15.3l-0.1-0.1
		c-0.1-0.2-0.1-0.4-0.2-0.7s-0.1-0.5-0.2-0.7s-0.2-0.4-0.4-0.6c-0.1-0.1-0.3-0.2-0.5-0.3s-0.3-0.1-0.5-0.1c-0.2,0.1-0.4,0.3-0.7,0.4
		s-0.4,0.2-0.7,0.4s-0.5,0.2-0.7,0.2l-0.2-0.2v-0.1c0.3-0.2,0.6-0.3,0.9-0.5c0.3-0.1,0.6-0.3,1-0.4s0.7-0.2,1-0.3v0l-0.3,0.3
		c0.2,0,0.4,0,0.5,0.1s0.3,0.2,0.5,0.3l0.5,0.8h0.1l0.1-1.6v-2h-0.1c-0.3,0.1-0.5,0.3-0.8,0.4s-0.6,0.2-0.9,0.3s-0.6,0.1-0.9,0.1
		L12.6,11h0v0.1h0.2c0.3-0.1,0.6-0.2,0.8-0.3s0.6-0.2,0.8-0.3s0.5-0.2,0.8-0.4l0.1-2.2h-0.1c-0.3,0.1-0.6,0.2-0.8,0.3
		s-0.6,0.2-0.8,0.2S13,8.5,12.7,8.5l-0.4-0.2l-0.1-0.2l0.1,0c0.1,0.1,0.2,0.2,0.3,0.2s0.3,0,0.4,0c0.3-0.1,0.5-0.1,0.8-0.2
		s0.5-0.2,0.8-0.2s0.5-0.2,0.8-0.2V6.2l-0.1-0.2l0.2,0c0.1,0.1,0.2,0.3,0.2,0.5s0,0.3,0.1,0.5s0,0.3,0,0.5h0.1
		c0.2-0.1,0.4-0.1,0.5-0.2s0.4-0.1,0.6-0.2s0.4-0.1,0.6-0.1L17.6,7v0.2c-0.1,0.1-0.3,0.2-0.4,0.3s-0.3,0.2-0.5,0.2S16.4,7.9,16.3,8
		l0.5-0.5h-0.1l-1,0.3v1.4l0,0.7h0.1c0.1-0.1,0.2-0.2,0.4-0.3s0.2-0.2,0.3-0.4l0-0.4l-0.1-0.3h0l0.3,0.3l0.1,0.4
		c0,0.2-0.1,0.4-0.3,0.5l-0.7,0.5v3.2c0,0.2,0,0.4,0,0.6s0,0.4,0,0.6s-0.1,0.4-0.1,0.5L15.4,15.3z M18,13.9
		c-0.2-0.2-0.3-0.3-0.4-0.5s-0.2-0.4-0.4-0.6s-0.3-0.4-0.4-0.6v-0.1l0-0.1l0.3,0c0.2,0.1,0.3,0.2,0.5,0.4s0.3,0.3,0.4,0.5
		c0.1,0.2,0.2,0.3,0.3,0.5v0.2l-0.1,0.2L18,13.9z"/>
	<path d="M25.2,14.1l0.5-0.4v-0.1c0.2-0.2,0.5-0.5,0.7-0.7c0.2-0.3,0.4-0.5,0.6-0.8s0.4-0.5,0.5-0.8c0.1-0.2,0.1-0.4,0.2-0.7
		s0-0.5,0-0.7c0-0.2-0.1-0.4-0.2-0.6S27.2,9,27.1,8.9c-0.2-0.2-0.4-0.4-0.7-0.5s-0.5-0.2-0.7-0.3S25.1,8,24.8,8
		c-0.2,0-0.4,0.1-0.6,0.1S24,8.3,23.8,8.4s-0.3,0.3-0.5,0.4c-0.2,0.2-0.3,0.5-0.5,0.8s-0.2,0.6-0.3,0.9s-0.1,0.6-0.1,0.9
		c0,0.3,0.1,0.5,0.3,0.7l0.3,0.1c0.2,0,0.5-0.1,0.7-0.2s0.4-0.2,0.6-0.4s0.4-0.3,0.6-0.4l0-0.1c0.2-0.2,0.3-0.3,0.5-0.5
		s0.3-0.4,0.4-0.5s0.2-0.4,0.3-0.6l0-0.1l0.1,0c0.1,0.1,0.1,0.2,0.1,0.3c-0.1,0.3-0.2,0.5-0.4,0.8s-0.3,0.5-0.5,0.7
		s-0.4,0.4-0.6,0.6c-0.2,0.2-0.4,0.3-0.6,0.5s-0.4,0.2-0.7,0.3s-0.5,0.1-0.8,0.1l-0.4-0.2c-0.1-0.2-0.2-0.4-0.3-0.6
		s-0.1-0.4-0.1-0.7c0-0.4,0.1-0.7,0.2-1s0.3-0.6,0.4-0.9s0.4-0.6,0.7-0.8c0.2-0.2,0.4-0.3,0.6-0.4s0.5-0.2,0.7-0.2s0.5,0,0.8,0
		c0.3,0,0.5,0.1,0.8,0.2s0.5,0.2,0.7,0.4s0.4,0.3,0.6,0.5c0.1,0.2,0.3,0.4,0.4,0.6s0.2,0.4,0.2,0.6s0,0.4,0,0.7
		c0,0.2-0.1,0.4-0.1,0.6s-0.1,0.4-0.2,0.6s-0.2,0.3-0.3,0.5h-0.1c-0.1,0.2-0.3,0.3-0.4,0.5s-0.3,0.3-0.5,0.5
		c-0.2,0.2-0.4,0.3-0.6,0.5S25.5,14,25.2,14.1z"/>
	<path d="M33,14.3c-0.2,0-0.3-0.1-0.5-0.1S32.2,14,32,14s-0.3-0.2-0.4-0.3l-0.2-0.3h0c0.2,0.2,0.4,0.3,0.6,0.4s0.4,0.1,0.7,0.2
		s0.5,0.1,0.7,0.1c0.2,0,0.5-0.1,0.7-0.1s0.5-0.1,0.7-0.2s0.4-0.2,0.6-0.4l0.1-0.2c0-0.2-0.1-0.3-0.3-0.4s-0.3-0.3-0.4-0.4
		c-0.2-0.2-0.4-0.4-0.7-0.6s-0.4-0.4-0.6-0.7s-0.3-0.5-0.5-0.7C33.1,10,33,9.9,33,9.8s0-0.3,0-0.5c0-0.2,0.1-0.4,0.2-0.6
		s0.3-0.4,0.4-0.5C33.8,8.1,33.9,8,34,7.9s0.3-0.1,0.5-0.1l0.3,0.1c0.1,0.1,0.1,0.2,0.1,0.4c-0.1,0.2-0.2,0.4-0.3,0.6
		s-0.3,0.4-0.5,0.5c-0.1,0.1-0.2,0.2-0.3,0.3s-0.2,0.1-0.4,0.2V10c0.1,0.2,0.3,0.5,0.5,0.7s0.4,0.5,0.6,0.7s0.4,0.4,0.7,0.6V12
		l0.1,0.1c0.1,0.1,0.3,0.3,0.4,0.5s0.2,0.3,0.2,0.5c0,0.2-0.1,0.3-0.2,0.4c-0.3,0.2-0.5,0.4-0.8,0.5s-0.6,0.2-0.9,0.3
		S33.3,14.3,33,14.3z M33.6,9.8c0.1-0.1,0.3-0.2,0.4-0.3s0.3-0.2,0.4-0.4s0.2-0.3,0.3-0.4l0.1-0.4l-0.2-0.2h-0.3
		c-0.1,0-0.2,0.1-0.3,0.2s-0.2,0.2-0.3,0.3c-0.1,0.2-0.2,0.3-0.3,0.5s-0.1,0.4-0.1,0.6l0.1,0.2h0.1L33.6,9.8z"/>
	<path d="M37.6,16.1v-0.8c0-0.7,0.1-1.3,0.3-1.9c0.1-0.6,0.3-1.2,0.5-1.8s0.4-1.3,0.6-2h-0.1c-0.2,0.1-0.4,0.2-0.7,0.3
		s-0.4,0.2-0.6,0.4l0,0.1l0.1,0.1h-0.1l-0.2-0.1l0-0.1l0.2-0.3l0.1,0V10c0.2-0.1,0.3-0.2,0.5-0.3s0.3-0.2,0.5-0.2s0.3-0.1,0.5-0.2
		c0.1-0.2,0.1-0.3,0.2-0.5s0.2-0.3,0.3-0.5L40,8.3L40,8.4c-0.1,0.1-0.2,0.2-0.2,0.4S39.7,9,39.7,9.2h0.2L41,9c0.2,0,0.5,0.1,0.7,0.1
		s0.4,0.2,0.6,0.4c0.1,0.1,0.2,0.3,0.2,0.5s0,0.4,0,0.6c-0.1,0.2-0.1,0.5-0.3,0.7s-0.2,0.4-0.4,0.6s-0.3,0.4-0.5,0.6
		c-0.3,0.2-0.5,0.5-0.8,0.6c-0.3,0.2-0.6,0.3-0.9,0.4s-0.7,0.1-1,0.1l-0.2-0.1l-0.5,2.5H37.6z M40,12.9c0.3-0.2,0.5-0.3,0.8-0.6
		s0.5-0.5,0.7-0.7s0.4-0.5,0.5-0.8c0.1-0.2,0.1-0.5,0.1-0.7l-0.2-0.4c-0.1-0.1-0.3-0.2-0.5-0.3s-0.4-0.1-0.6-0.1s-0.4,0-0.6,0
		l-0.8,0.2c-0.1,0.4-0.3,0.9-0.4,1.3s-0.3,0.9-0.4,1.3s-0.2,0.9-0.3,1.4h0.2c0.2,0,0.3-0.1,0.5-0.1s0.3-0.1,0.5-0.2S39.9,13,40,12.9
		z"/>
	<path d="M45,14.1c-0.2,0-0.3-0.1-0.5-0.1s-0.3-0.1-0.4-0.3c-0.1-0.2-0.2-0.3-0.3-0.5s-0.1-0.4-0.1-0.6c0-0.4,0.1-0.8,0.2-1.1
		s0.3-0.7,0.5-1s0.4-0.7,0.7-1c0.1-0.1,0.3-0.3,0.5-0.3S45.8,9,46,9s0.4,0,0.6,0C46.7,9,46.9,9,47,9.1s0.3,0.2,0.4,0.3
		c0.1,0.1,0.2,0.3,0.3,0.5s0.1,0.4,0.1,0.6c0,0.2-0.1,0.4-0.2,0.6s-0.2,0.4-0.4,0.6c-0.2,0.2-0.5,0.4-0.8,0.6s-0.6,0.3-0.8,0.3
		s-0.6,0.1-0.9,0.1l-0.2-0.2c0.3,0,0.7-0.1,1-0.2s0.6-0.2,0.9-0.4s0.5-0.4,0.8-0.7c0.1-0.2,0.3-0.4,0.3-0.6s0.1-0.4,0.1-0.7
		l-0.2-0.4h-0.1V9.5c-0.1-0.1-0.3-0.2-0.4-0.2s-0.3-0.1-0.5,0c-0.2,0-0.4,0.1-0.6,0.2s-0.3,0.2-0.5,0.4c-0.2,0.3-0.4,0.6-0.6,0.9
		s-0.3,0.7-0.4,1s-0.1,0.7-0.1,1.1c0,0.2,0.2,0.5,0.3,0.6c0.2,0.1,0.3,0.2,0.5,0.2s0.4,0,0.6,0c0.3-0.1,0.6-0.1,1-0.2
		s0.6-0.2,0.9-0.3s0.6-0.2,0.9-0.4v0c-0.3,0.3-0.7,0.5-1,0.7s-0.7,0.4-1.1,0.5S45.4,14.2,45,14.1z"/>
	<path d="M50.4,14.2c-0.1,0-0.2-0.1-0.4-0.1s-0.2-0.1-0.3-0.2c-0.1-0.2-0.2-0.3-0.2-0.6s-0.1-0.4,0-0.6c0.1-0.4,0.2-0.8,0.4-1.2
		s0.4-0.7,0.6-1.1s0.5-0.7,0.8-1c0.2-0.2,0.4-0.3,0.6-0.5s0.4-0.2,0.7-0.2l0.4,0.2L53,9.3l-0.1,0L52.7,9L52.5,9
		C52.3,9,52.1,9.1,52,9.2s-0.3,0.3-0.5,0.4c-0.3,0.3-0.5,0.7-0.7,1s-0.4,0.7-0.6,1.1s-0.2,0.8-0.2,1.2l0.2,0.4
		c0.2,0.1,0.4,0.2,0.6,0.2c0.5-0.1,0.9-0.2,1.3-0.5c0.4-0.2,0.8-0.4,1.3-0.7s0.8-0.5,1.2-0.8v0.1l-0.3,0.4c-0.4,0.3-0.8,0.6-1.2,0.9
		c-0.4,0.3-0.8,0.5-1.2,0.8S50.9,14.2,50.4,14.2z"/>
	<path d="M58,14.4c-0.2-0.1-0.3-0.2-0.4-0.4c-0.1-0.2-0.1-0.4-0.1-0.6s0-0.5,0-0.7c0-0.4,0.1-0.8,0.2-1.1s0.1-0.7,0.2-1.1
		s0.2-0.7,0.3-1l0.2-0.1l0.1,0l0,0.2c-0.1,0.4-0.2,0.9-0.2,1.3S58,11.6,58,12.1s-0.1,0.9-0.1,1.4c0,0.1,0,0.3,0.1,0.4
		s0.1,0.3,0.1,0.4h0.1v0L58,14.4z M58.9,8.2c-0.2-0.1-0.3-0.2-0.5-0.3S58.1,7.6,58,7.4V7.3c0-0.1,0.1-0.2,0.2-0.2h0.2
		c0.1,0,0.2,0.1,0.3,0.2s0.1,0.2,0.2,0.4L58.9,8.2z"/>
	<path d="M65.9,14.5c-0.2-0.1-0.3-0.2-0.4-0.4s-0.2-0.3-0.3-0.5C65.1,13.5,65,13.2,65,13c0-0.2-0.1-0.4-0.1-0.6s0-0.4,0-0.7h-0.1
		c-0.2,0.3-0.4,0.6-0.6,0.9s-0.5,0.6-0.8,0.8s-0.6,0.4-0.9,0.6L61.9,14l-0.4-0.2c-0.1-0.2-0.2-0.3-0.2-0.5s0-0.4,0-0.6
		c0.1-0.4,0.2-0.8,0.3-1.2s0.3-0.8,0.5-1.1s0.5-0.7,0.8-1c0.2-0.2,0.4-0.3,0.6-0.4s0.4-0.1,0.7-0.1c0.2,0,0.4,0.2,0.6,0.4L65,9.5
		h0.1l0.3-0.2l0.1,0.1c0.1,0.1,0.1,0.2,0.1,0.3c0,0.2-0.1,0.4-0.2,0.6s-0.1,0.4-0.1,0.6s0,0.4,0,0.7c0,0.3,0.1,0.7,0.1,1
		s0.2,0.7,0.3,1S65.9,14.2,65.9,14.5L65.9,14.5z M62.6,13.4c0.3-0.2,0.6-0.5,0.9-0.8s0.5-0.6,0.8-1s0.4-0.7,0.6-1l0.1-0.7
		c-0.1-0.2-0.2-0.4-0.4-0.6c-0.1-0.1-0.3-0.1-0.5-0.1c-0.2,0-0.4,0.1-0.6,0.3S63.1,9.8,63,9.9c-0.3,0.3-0.5,0.7-0.6,1
		s-0.3,0.7-0.4,1.1s-0.2,0.8-0.2,1.2l0.2,0.4l0.2,0.1L62.6,13.4z"/>
	<path d="M69.6,14.6c-0.1-0.3-0.2-0.7-0.2-1.1s0-0.8,0-1.1s0-0.8,0-1.2c0-0.7,0.1-1.4,0.3-2.1s0.3-1.4,0.5-2s0.5-1.3,0.8-2L71.2,5
		l0.1,0.2c-0.4,1-0.8,2-1,3.1s-0.4,2.1-0.5,3.2S69.7,13.5,69.6,14.6z"/>
	<path d="M80.5,16.1c-0.1-0.1-0.2-0.3-0.2-0.4l0-0.2h0l0.1,0.2h0.1c0.2-0.6,0.3-1.2,0.5-1.8s0.2-1.2,0.3-1.8s0.2-1.2,0.3-1.8h-0.2
		l-1.1,0.1l-0.5-0.2l-0.1-0.2l0-0.1l1.9-0.3c0.1-0.5,0.1-1,0.2-1.6s0.1-1,0.2-1.6s0.2-1,0.5-1.4c0.1-0.1,0.3-0.2,0.5-0.1
		c0.1,0.1,0.3,0.1,0.4,0.2s0.3,0.2,0.4,0.3C83.9,5.8,84,6,84.1,6.2s0.1,0.4,0.1,0.7c-0.1,0.2-0.2,0.4-0.3,0.6S83.7,7.8,83.5,8V7.9
		c0.1-0.2,0.3-0.4,0.4-0.6S84,7,84,6.7c0-0.2-0.1-0.3-0.2-0.5S83.6,6,83.5,5.9c-0.1-0.1-0.2-0.2-0.4-0.2s-0.2-0.1-0.4-0.1
		c-0.2,0.4-0.3,0.9-0.4,1.4s-0.1,1-0.1,1.5s-0.1,1-0.2,1.5h0.1l1.7-0.1v0c-0.2,0.1-0.4,0.1-0.6,0.2s-0.4,0.1-0.6,0.2
		s-0.4,0.1-0.7,0.1c-0.1,0.7-0.2,1.3-0.3,2s-0.2,1.3-0.3,2s-0.3,1.3-0.6,1.9L80.5,16.1z"/>
	<path d="M86.8,14.1c-0.2,0-0.5-0.2-0.6-0.4c-0.1-0.2-0.2-0.3-0.2-0.5s0-0.4,0-0.6c0.1-0.3,0.1-0.7,0.3-1s0.3-0.6,0.5-0.9
		s0.4-0.6,0.6-0.8l0.1,0l0.1-0.1c0.1-0.1,0.2-0.2,0.3-0.3s0.2-0.1,0.3-0.2V9.3l0-0.1l0.3-0.3l0.4-0.1c0.2,0,0.3,0.1,0.5,0.2
		s0.3,0.2,0.4,0.3c0.1,0.1,0.2,0.3,0.3,0.5s0.1,0.3,0.2,0.5s0,0.4,0,0.6c0,0.3-0.1,0.5-0.2,0.8s-0.2,0.5-0.4,0.7s-0.3,0.4-0.5,0.7
		l-0.1,0v0.1h-0.1v0.1c-0.2,0.2-0.4,0.3-0.6,0.5s-0.5,0.2-0.7,0.3S87.1,14.1,86.8,14.1z M88.1,13.3c0.2-0.1,0.4-0.3,0.6-0.5
		c0.2-0.2,0.4-0.4,0.5-0.6s0.3-0.4,0.4-0.6c0.1-0.2,0.1-0.4,0.2-0.6s0.1-0.4,0-0.6c0-0.2-0.1-0.3-0.2-0.5s-0.2-0.3-0.4-0.4
		c-0.2-0.1-0.3-0.2-0.5-0.1c-0.2,0-0.4,0.1-0.6,0.3s-0.4,0.3-0.5,0.5c-0.2,0.3-0.4,0.6-0.6,0.9s-0.3,0.6-0.4,0.9s-0.2,0.7-0.2,1.1
		c0,0.2,0.1,0.3,0.2,0.4c0.2,0.1,0.4,0.2,0.7,0.1L88.1,13.3z"/>
	<path d="M92.1,14.3L92.1,14.3L92,13.9c0.2-0.6,0.3-1.2,0.3-1.9s0.1-1.3,0.2-1.9s0.1-1.3,0.2-1.9h0.1l0,1.8L92.6,12h0.1
		c0.2-0.3,0.3-0.7,0.6-1s0.5-0.6,0.7-0.9s0.6-0.5,0.9-0.7c0.2-0.1,0.3-0.1,0.6-0.1l0.5,0.2v0.1H96c0.1,0.2,0.2,0.4,0.2,0.6l0,0
		c0-0.2-0.1-0.3-0.2-0.5c-0.2-0.2-0.4-0.2-0.7-0.2c-0.2,0.1-0.4,0.2-0.6,0.3s-0.3,0.3-0.5,0.5c-0.3,0.4-0.6,0.8-0.9,1.2
		s-0.5,0.8-0.6,1.3c-0.1,0.5-0.2,0.9-0.3,1.4L92.1,14.3z"/>
	<path d="M104.6,16.2L104.6,16.2c0.2-0.4,0.3-0.7,0.5-1s0.3-0.6,0.5-0.9s0.3-0.6,0.5-0.9h-0.1l-0.2,0c-0.2-0.1-0.4-0.2-0.5-0.4
		c-0.1-0.2-0.2-0.3-0.3-0.5c-0.2-0.4-0.3-0.7-0.4-1.1s-0.2-0.8-0.3-1.2s-0.2-0.8-0.3-1.2c0-0.1,0.1-0.1,0.2-0.1
		c0.2,0.4,0.4,0.9,0.5,1.4s0.3,0.9,0.5,1.4s0.4,0.9,0.7,1.3l0.4,0c0.2-0.5,0.4-1,0.7-1.4s0.4-0.9,0.6-1.4s0.4-1,0.5-1.5h-0.1l-0.5,1
		h0v0c0.1-0.2,0.1-0.3,0.2-0.5s0.2-0.3,0.2-0.5s0.2-0.3,0.3-0.5l0.2,0l0.1,0.3c-0.2,0.9-0.5,1.8-0.9,2.7s-0.7,1.7-1.1,2.6
		c-0.4,0.9-0.9,1.6-1.5,2.4L104.6,16.2z"/>
	<path d="M110.8,14.1c-0.2,0-0.5-0.2-0.6-0.4c-0.1-0.2-0.2-0.3-0.2-0.5s0-0.4,0-0.6c0.1-0.3,0.1-0.7,0.3-1s0.3-0.6,0.5-0.9
		s0.4-0.6,0.6-0.8l0.1,0l0.1-0.1c0.1-0.1,0.2-0.2,0.3-0.3s0.2-0.1,0.3-0.2V9.3l0-0.1l0.3-0.3l0.4-0.1c0.2,0,0.3,0.1,0.5,0.2
		s0.3,0.2,0.4,0.3c0.1,0.1,0.2,0.3,0.3,0.5s0.1,0.3,0.2,0.5s0,0.4,0,0.6c0,0.3-0.1,0.5-0.2,0.8s-0.2,0.5-0.4,0.7s-0.3,0.4-0.5,0.7
		l-0.1,0v0.1h-0.1v0.1c-0.2,0.2-0.4,0.3-0.6,0.5s-0.5,0.2-0.7,0.3S111.1,14.1,110.8,14.1z M112.1,13.3c0.2-0.1,0.4-0.3,0.6-0.5
		c0.2-0.2,0.4-0.4,0.5-0.6s0.3-0.4,0.4-0.6c0.1-0.2,0.1-0.4,0.2-0.6s0.1-0.4,0-0.6c0-0.2-0.1-0.3-0.2-0.5s-0.2-0.3-0.4-0.4
		c-0.2-0.1-0.3-0.2-0.5-0.1c-0.2,0-0.4,0.1-0.6,0.3s-0.4,0.3-0.5,0.5c-0.2,0.3-0.4,0.6-0.6,0.9s-0.3,0.6-0.4,0.9s-0.2,0.7-0.2,1.1
		c0,0.2,0.1,0.3,0.2,0.4c0.2,0.1,0.4,0.2,0.7,0.1L112.1,13.3z"/>
	<path d="M119.9,14.3L119.9,14.3c-0.2-0.3-0.3-0.6-0.4-0.8s-0.1-0.6-0.2-0.9s0-0.6,0-0.9l0-0.2h-0.1c-0.2,0.3-0.4,0.6-0.6,0.9
		s-0.5,0.6-0.7,0.9s-0.5,0.5-0.9,0.7l-0.5,0.1l-0.4-0.2c-0.1-0.2-0.2-0.4-0.2-0.6s0-0.5,0-0.7c0-0.4,0.1-0.8,0.2-1.2
		s0.2-0.8,0.3-1.1s0.3-0.7,0.5-1l0.3-0.1l0.1,0.1l0,0.1c-0.1,0-0.2,0-0.3,0.1c-0.2,0.3-0.3,0.7-0.4,1.1s-0.1,0.8-0.2,1.2
		s-0.1,0.8-0.1,1.2c0,0.1,0,0.3,0.1,0.4s0.1,0.3,0.2,0.4l0.2,0c0.2-0.1,0.3-0.2,0.4-0.3s0.3-0.2,0.4-0.3c0.3-0.4,0.6-0.8,1-1.2
		s0.6-0.9,0.8-1.4s0.4-1,0.5-1.4l0.2-0.1l0.1,0l0,0.4c-0.1,0.3-0.3,0.6-0.3,0.9s-0.1,0.6-0.2,1s0,0.7,0,1c0,0.2,0.1,0.4,0.1,0.7
		c0,0.2,0,0.4,0,0.7S119.9,14.1,119.9,14.3L119.9,14.3z"/>
</g>
</svg>
