<?xml version="1.0" encoding="utf-8"?>
<!-- Generator: Adobe Illustrator 24.2.1, SVG Export Plug-In . SVG Version: 6.00 Build 0)  -->
<svg version="1.1" id="Layer_1" xmlns="http://www.w3.org/2000/svg" xmlns:xlink="http://www.w3.org/1999/xlink" x="0px" y="0px"
	 viewBox="0 0 271.7 79.4" style="enable-background:new 0 0 271.7 79.4;" xml:space="preserve">
<style type="text/css">
	.st0{fill:#5C6249;}
	.st1{fill:#CEAA5B;}
	.st2{font-family:'ShokakiSarariGyotai';}
	.st3{font-size:31.4535px;}
	.st4{enable-background:new    ;}
	.st5{fill:none;stroke:#CEAA5B;stroke-width:2.5297;}
</style>
<path class="st0" d="M253,68.4H22.7c-5,0-9-4-9-9v-39c0-5,4-9,9-9H253c5,0,9,4,9,9v38.9C262,64.3,257.9,68.4,253,68.4z"/>
<text transform="matrix(1.203 0 0 1 45.1523 48.8301)" class="st1 st2 st3">Get Coupon</text>
<g class="st4">
	<path class="st5" d="M48.6,48.8c-0.6-0.1-1.1-0.3-1.6-0.7c-0.4-0.4-0.7-0.9-0.9-1.4s-0.4-1-0.4-1.5s-0.1-1.1-0.1-1.7
		c0.1-1.9,0.5-3.8,1.1-5.7c0.6-1.8,1.4-3.6,2.4-5.4s2.3-3.4,3.9-4.9c0.6-0.4,1.2-0.8,1.8-1.2c0.6-0.4,1.2-0.7,1.9-0.9
		c0.7-0.2,1.4-0.3,2.2-0.2c0.6,0.1,1.2,0.4,1.6,0.9c0.3,0.3,0.5,0.6,0.6,1c0.1,0.4,0.1,0.8,0,1.2L61,28.7h-0.2
		c0-0.4-0.1-0.8-0.2-1.2c-0.2-0.4-0.4-0.7-0.8-0.9c-0.5-0.3-1.1-0.5-1.8-0.4c-0.7,0.2-1.4,0.4-1.9,0.8c-0.6,0.3-1.1,0.7-1.7,1.1
		l-0.1,0.2c-0.5,0.4-1,0.9-1.4,1.4c-0.4,0.5-0.9,1-1.2,1.6c-0.4,0.5-0.7,1.1-1.1,1.6c-0.6,1.2-1.2,2.4-1.7,3.7
		c-0.5,1.3-0.9,2.6-1.2,3.9c-0.3,1.3-0.4,2.7-0.4,4.1c0,0.5,0.2,1,0.3,1.6c0.2,0.5,0.5,0.9,0.9,1.3l1.2,0.2c0.9-0.1,1.7-0.4,2.5-0.8
		c0.8-0.4,1.5-0.8,2.2-1.3s1.4-1,2.1-1.6c0.4-0.4,0.7-0.8,1-1.2s0.6-0.8,0.9-1.2c0.3-0.4,0.5-0.8,0.6-1.2h0.1l0.1,1
		c-0.2,0.6-0.4,1.1-0.7,1.7c-0.3,0.6-0.7,1.1-1.1,1.6s-1,1-1.6,1.5c-0.7,0.5-1.4,1-2.2,1.4c-0.8,0.4-1.5,0.7-2.3,1
		C50.5,48.8,49.6,48.9,48.6,48.8z M58.8,50v-0.7c0.3-1.5,0.7-2.9,1.2-4.4c0.5-1.5,0.9-3,1.3-4.5c0.4-1.5,0.5-3,0.5-4.6l-0.3-0.3
		h-0.8c-1,0.3-2,0.5-2.9,0.8c-0.9,0.3-1.9,0.6-2.8,0.9c-0.9,0.3-2,0.5-3,0.7v-0.2c1-0.5,2.1-1,3.1-1.5c1.1-0.5,2.2-0.9,3.3-1.3
		c1.1-0.4,2.3-0.6,3.5-0.7c0.4,0.1,0.8,0.3,1.1,0.6c0.2,0.4,0.4,0.8,0.5,1.2c0.1,0.5,0.1,0.9,0.1,1.4c-0.1,1.5-0.4,2.9-0.7,4.3
		c-0.3,1.4-0.8,2.8-1.3,4.2c-0.5,1.4-1.3,2.7-2.4,3.9L58.8,50z"/>
	<path class="st5" d="M70.4,47.7c-0.5-0.1-1-0.2-1.5-0.3c-0.5-0.1-0.9-0.3-1.3-0.7c-0.4-0.4-0.7-0.9-0.9-1.4c-0.1-0.5-0.3-1-0.3-1.6
		c0.1-1,0.3-2,0.6-3c0.3-0.9,0.8-1.8,1.4-2.7c0.6-0.9,1.3-1.7,2.1-2.5c0.4-0.4,0.9-0.7,1.4-0.9c0.5-0.2,1-0.4,1.6-0.5
		c0.6-0.1,1.2-0.1,1.8-0.1c0.5,0,0.9,0.2,1.4,0.3c0.4,0.2,0.8,0.4,1.2,0.7c0.4,0.4,0.6,0.8,0.8,1.2c0.2,0.5,0.2,0.9,0.2,1.4
		c-0.1,0.6-0.4,1.1-0.7,1.6c-0.4,0.5-0.8,1-1.3,1.5c-0.8,0.6-1.6,1.2-2.4,1.6c-0.9,0.4-1.7,0.7-2.7,0.9c-0.9,0.2-1.9,0.3-3,0.2
		l-0.8-0.4c1.1,0,2.1-0.1,3.1-0.4c1-0.3,1.9-0.6,2.8-1.1c0.9-0.4,1.7-1,2.5-1.8c0.4-0.5,0.8-1,1.1-1.5c0.3-0.5,0.4-1.1,0.3-1.7
		l-0.6-1h-0.2v-0.2c-0.4-0.2-0.9-0.4-1.3-0.5c-0.4-0.1-0.9-0.2-1.5-0.1c-0.6,0.1-1.2,0.3-1.8,0.6c-0.6,0.3-1.1,0.6-1.5,1.1
		c-0.8,0.7-1.4,1.5-1.8,2.4c-0.5,0.8-0.8,1.7-1.1,2.6c-0.3,0.9-0.4,1.8-0.4,2.8c0.1,0.6,0.5,1.2,1.1,1.7c0.5,0.3,1,0.5,1.6,0.5
		c0.6,0,1.2,0,1.9,0c1-0.2,2-0.4,3-0.6c1-0.3,2-0.5,2.9-0.8c0.9-0.3,1.9-0.6,2.8-1v0.1c-1,0.7-2.1,1.3-3.2,1.8
		c-1.1,0.5-2.3,0.9-3.5,1.3C73.1,47.7,71.8,47.8,70.4,47.7z"/>
	<path class="st5" d="M92.2,48.2L91,47.5c-0.4-0.5-0.7-1-0.8-1.6c-0.1-0.6-0.2-1.1-0.2-1.8s0-1.3,0-1.9c0-0.6,0.1-1.2,0.2-1.9
		c0.1-0.6,0.2-1.3,0.3-1.9c0.1-0.6,0.2-1.2,0.4-1.9h-0.2c-0.5,0.2-1,0.3-1.6,0.3c-0.5,0-1.1,0-1.7,0l-0.9-0.3l-0.3-0.7
		c0.2-0.3,0.5-0.4,0.9-0.3v0.2h1.3l2.8-0.3c0.1-0.6,0.3-1.2,0.5-1.7c0.2-0.5,0.4-1,0.6-1.6c0.2-0.5,0.6-1,1-1.5l0.7-0.1l0.1,0.4
		c-0.3,0.4-0.5,0.9-0.7,1.3c-0.2,0.5-0.4,1-0.5,1.4c-0.2,0.5-0.3,1-0.3,1.5h0.2l3.6-0.4V35l-4,1.3c-0.2,0.8-0.4,1.7-0.6,2.5
		s-0.3,1.7-0.3,2.6c-0.1,0.9-0.1,1.8-0.1,2.7c0.1,0.5,0.2,1,0.3,1.6c0.1,0.5,0.3,1,0.7,1.4l1,0.1c0.6-0.2,1.1-0.4,1.7-0.6
		c0.5-0.2,1.1-0.5,1.6-0.8s1-0.7,1.4-1v0.2c-0.3,0.5-0.7,0.9-1.2,1.4c-0.5,0.4-1,0.8-1.5,1.1c-0.5,0.3-1.1,0.6-1.6,0.9L92.2,48.2z"
		/>
	<path class="st5" d="M124.2,49.5c-0.7-0.1-1.3-0.3-1.8-0.8c-0.4-0.4-0.6-0.8-0.7-1.2c-0.1-0.4-0.2-0.9-0.2-1.4c0-0.5,0-1,0-1.5
		c0.3-2,0.9-3.9,1.6-5.8c0.8-1.9,1.6-3.7,2.7-5.6c1-1.8,2.4-3.5,4.1-4.9c0.5-0.4,1.1-0.7,1.7-0.9c0.6-0.2,1.3-0.3,2-0.2
		c0.8,0.2,1.4,0.5,2,1c0.3,0.3,0.5,0.7,0.7,1.1c0.1,0.4,0.2,0.9,0.1,1.3L136,31c0-0.5-0.1-0.9-0.4-1.3c-0.3-0.4-0.6-0.7-0.9-1
		c-0.5-0.3-1.1-0.5-1.7-0.5c-0.6,0-1.1,0.2-1.6,0.5c-0.5,0.3-1,0.7-1.4,1c-1.5,1.5-2.7,3.2-3.6,5c-0.9,1.8-1.6,3.7-2.3,5.5
		c-0.6,1.9-1,3.8-1.1,5.7c0,0.4,0.1,0.7,0.2,1c0.1,0.3,0.3,0.6,0.6,0.8l1,0.2c1.7-0.3,3.4-0.7,5-1.3c1.7-0.6,3.3-1.3,4.8-2
		c1.6-0.7,3.2-1.4,4.7-2.1v0.1c-1.5,1-3,2-4.6,3c-1.6,0.9-3.3,1.8-5,2.5C128.1,49,126.2,49.4,124.2,49.5z"/>
	<path class="st5" d="M145.5,47.6c-0.8-0.1-1.4-0.4-2-1c-0.3-0.4-0.5-0.9-0.6-1.4c-0.1-0.5-0.1-1,0-1.5c0.2-0.9,0.5-1.8,0.9-2.6
		c0.4-0.8,0.9-1.6,1.5-2.4c0.6-0.8,1.2-1.5,2-2.1l0.3-0.1l0.2-0.2c0.3-0.3,0.6-0.5,0.9-0.7c0.3-0.2,0.7-0.3,1-0.4v-0.2l-0.1-0.3
		l1-0.7l1.2-0.2c0.5,0.1,1,0.3,1.5,0.5c0.5,0.2,0.9,0.5,1.4,0.8c0.4,0.4,0.7,0.8,1,1.2c0.3,0.4,0.5,0.9,0.5,1.4
		c0.1,0.5,0.1,1,0.1,1.5c-0.1,0.7-0.4,1.4-0.7,2.1c-0.3,0.7-0.7,1.3-1.2,1.9c-0.5,0.6-1,1.2-1.6,1.7l-0.3,0.1v0.2h-0.2v0.2
		c-0.6,0.5-1.3,0.9-2,1.2s-1.4,0.6-2.2,0.8C147.2,47.6,146.4,47.6,145.5,47.6z M149.6,45.6c0.6-0.3,1.3-0.7,1.8-1.2
		c0.6-0.5,1.1-1,1.6-1.5c0.5-0.5,0.9-1,1.2-1.6c0.2-0.5,0.4-1,0.6-1.5s0.2-1,0.1-1.6c-0.1-0.5-0.3-0.9-0.6-1.3
		c-0.2-0.4-0.6-0.8-1.1-1.1c-0.5-0.3-1.1-0.4-1.7-0.4c-0.7,0.1-1.3,0.3-1.9,0.7c-0.6,0.4-1.2,0.8-1.6,1.3c-0.7,0.7-1.3,1.5-1.8,2.3
		c-0.5,0.8-0.9,1.6-1.3,2.4c-0.4,0.8-0.5,1.8-0.5,2.8c0.1,0.4,0.3,0.8,0.8,1.1c0.6,0.3,1.3,0.4,2.2,0.3L149.6,45.6z"/>
	<path class="st5" d="M174.3,48.1l-0.3-0.2c-0.4-0.6-0.8-1.3-1.1-2.1c-0.3-0.7-0.5-1.5-0.6-2.2c-0.1-0.8-0.1-1.6-0.1-2.4l0.1-0.4
		h-0.2c-0.6,0.8-1.2,1.7-1.9,2.4s-1.4,1.6-2.2,2.3c-0.8,0.7-1.7,1.4-2.7,1.9l-1.6,0.2l-1.1-0.6c-0.4-0.5-0.6-1-0.7-1.6
		c-0.1-0.6-0.1-1.2-0.1-1.9c0.1-1,0.2-2.1,0.5-3.1c0.2-1,0.5-2,0.9-2.9c0.4-1,0.9-1.9,1.7-2.7l0.9-0.2l0.4,0.2l0.1,0.2
		c-0.4-0.1-0.7,0-0.9,0.2c-0.6,0.9-1,1.9-1.2,2.9c-0.3,1-0.5,2-0.6,3c-0.2,1-0.2,2.1-0.2,3.2c0.1,0.4,0.1,0.7,0.2,1.1
		c0.1,0.4,0.3,0.7,0.6,0.9l0.7,0.1c0.5-0.2,0.9-0.4,1.4-0.7c0.4-0.3,0.8-0.6,1.3-0.8c1-1.1,2-2.2,3.1-3.3c1-1.1,1.8-2.3,2.4-3.5
		c0.6-1.3,1.2-2.5,1.7-3.8l0.7-0.2l0.2,0.1l0.1,1c-0.4,0.8-0.8,1.6-1.1,2.4c-0.3,0.8-0.4,1.7-0.5,2.6s-0.1,1.8-0.1,2.7
		c0.1,0.6,0.2,1.2,0.2,1.8s0,1.2,0.1,1.7c0.1,0.6,0.2,1.1,0.3,1.6H174.3z"/>
	<path class="st5" d="M179.8,52.9v-2c0.1-1.8,0.4-3.5,0.8-5s0.9-3.1,1.5-4.8c0.6-1.7,1.3-3.5,2-5.1h-0.3c-0.7,0.3-1.4,0.5-2.1,0.8
		s-1.4,0.7-2,1.2l-0.1,0.3l0.3,0.2h-0.3l-0.5-0.2l-0.1-0.3l0.6-0.8l0.3-0.1V37c0.5-0.3,1-0.6,1.5-0.8c0.5-0.2,1-0.4,1.6-0.6
		c0.5-0.2,1.1-0.3,1.7-0.4c0.2-0.4,0.4-0.9,0.7-1.3c0.2-0.4,0.6-0.8,1-1.2l0.7-0.2l0.2,0.4c-0.2,0.3-0.5,0.6-0.7,0.9
		c-0.2,0.3-0.4,0.6-0.4,1h0.5l3.6-0.3c0.8,0,1.5,0.2,2.2,0.3c0.7,0.2,1.4,0.5,1.9,1c0.4,0.4,0.6,0.8,0.7,1.2c0.1,0.5,0.1,0.9,0,1.5
		c-0.2,0.6-0.5,1.2-0.8,1.8c-0.3,0.6-0.8,1.1-1.3,1.6s-1,1-1.6,1.5c-0.8,0.6-1.7,1.2-2.6,1.7c-0.9,0.5-1.9,0.8-2.9,1.1
		c-1,0.2-2.1,0.3-3.3,0.3l-0.7-0.2l-1.7,6.7H179.8z M187.2,44.5c0.9-0.4,1.7-0.9,2.5-1.5c0.8-0.6,1.5-1.2,2.2-1.9
		c0.7-0.7,1.3-1.4,1.7-2.1c0.2-0.6,0.3-1.2,0.3-1.9l-0.7-1c-0.4-0.3-0.9-0.5-1.5-0.7c-0.6-0.2-1.1-0.2-1.7-0.2s-1.2,0-1.8,0
		l-2.7,0.4c-0.4,1.1-0.9,2.2-1.3,3.4c-0.4,1.2-0.8,2.3-1.2,3.5c-0.4,1.2-0.7,2.3-1.1,3.5h0.8c0.5-0.1,1-0.2,1.5-0.4
		c0.5-0.2,1-0.3,1.5-0.5C186.3,44.9,186.8,44.7,187.2,44.5z"/>
	<path class="st5" d="M202.3,47.6c-0.8-0.1-1.4-0.4-2-1c-0.3-0.4-0.5-0.9-0.6-1.4s-0.1-1,0-1.5c0.2-0.9,0.5-1.8,0.9-2.6
		c0.4-0.8,0.9-1.6,1.5-2.4c0.6-0.8,1.2-1.5,2-2.1l0.3-0.1l0.2-0.2c0.3-0.3,0.6-0.5,0.9-0.7c0.3-0.2,0.7-0.3,1-0.4v-0.2l-0.1-0.3
		l1-0.7l1.2-0.2c0.5,0.1,1,0.3,1.5,0.5c0.5,0.2,0.9,0.5,1.4,0.8c0.4,0.4,0.7,0.8,1,1.2c0.3,0.4,0.5,0.9,0.5,1.4
		c0.1,0.5,0.1,1,0.1,1.5c-0.1,0.7-0.4,1.4-0.7,2.1c-0.3,0.7-0.7,1.3-1.2,1.9c-0.5,0.6-1,1.2-1.6,1.7l-0.3,0.1v0.2H209v0.2
		c-0.6,0.5-1.3,0.9-2,1.2c-0.7,0.3-1.4,0.6-2.2,0.8C204,47.6,203.2,47.6,202.3,47.6z M206.4,45.6c0.6-0.3,1.3-0.7,1.8-1.2
		c0.6-0.5,1.1-1,1.6-1.5s0.9-1,1.2-1.6c0.2-0.5,0.4-1,0.6-1.5c0.1-0.5,0.2-1,0.1-1.6c-0.1-0.5-0.3-0.9-0.6-1.3
		c-0.2-0.4-0.6-0.8-1.1-1.1c-0.5-0.3-1.1-0.4-1.7-0.4c-0.7,0.1-1.3,0.3-1.9,0.7c-0.6,0.4-1.2,0.8-1.6,1.3c-0.7,0.7-1.3,1.5-1.8,2.3
		c-0.5,0.8-0.9,1.6-1.3,2.4S201,44,201.1,45c0.1,0.4,0.3,0.8,0.8,1.1c0.6,0.3,1.3,0.4,2.2,0.3L206.4,45.6z"/>
	<path class="st5" d="M217.7,48.6c-0.4-0.4-0.5-1-0.4-1.6c0.3-1.5,0.8-3,1.3-4.5c0.6-1.5,1.2-3,1.8-4.5c0.7-1.5,1.6-2.8,2.8-4.1
		c0.4-0.2,0.8-0.3,1.4-0.2l0.1,0.2c-0.4,0.1-0.8,0.2-1.1,0.6c-0.6,0.9-1.2,1.8-1.6,2.8s-0.8,1.9-1.2,2.8c-0.4,0.9-0.7,1.9-0.9,2.9
		h0.2c0.6-1,1.2-2.1,1.9-3c0.7-1,1.5-1.9,2.3-2.8s1.9-1.7,3.1-2.3l1.1-0.1l0.7,0.3c0.4,0.6,0.7,1.3,0.8,2.1c0.1,0.7,0.1,1.5,0.1,2.3
		c0,0.8,0,1.6,0,2.3l-0.1,0.6c-0.1,0.6,0.1,1.2,0.4,1.7l0.8,0.2l0.8-0.3v0.2c-0.5,0.6-1.2,0.9-2.1,0.9l-0.8-0.5
		c-0.2-0.4-0.4-0.9-0.4-1.4c0-0.5,0-1,0-1.4c0-0.5,0.1-1.1,0.1-1.6c0-0.5,0.1-1.1,0.1-1.7c0-0.6,0-1.1,0-1.7c-0.1-0.5-0.3-1-0.7-1.3
		l-0.4-0.1c-0.5,0.2-1,0.4-1.4,0.7s-0.9,0.7-1.2,1c-1.1,1.1-2,2.3-2.8,3.6c-0.8,1.2-1.5,2.5-2.1,3.8c-0.6,1.3-1.2,2.6-1.8,3.9
		L217.7,48.6z"/>
</g>
<g id="Layer_2_1_">
</g>
</svg>
